<svg id="Camada_2" data-name="Camada 2" xmlns="http://www.w3.org/2000/svg" viewBox="0 0 1147.31 1646.88"><defs><style>.cls-1{fill:red;}</style></defs><title>vitorB</title><path class="cls-1" d="M1136,1018c-91.17-123.37-221.67-154.19-255.56-161.11,34.06-12.62,113.43-47.39,172.23-130.56,96.76-136.87,57.15-290.8,50-316.66C1096,385.41,1067.54,292.08,980.44,218,874,127.43,742.82,119.27,633.22,112.44c-83.69-5.21-111.76,5.19-236.11-5.55C316.24,99.9,261.45,89.74,236,84.67A1350.38,1350.38,0,0,1,69.33,40.22c6.53,29.3,25,93,80.56,150a308.73,308.73,0,0,0,102.78,69.45q12.5,643.05,25,1286.11L130.44,1681.89c193.8-6.59,348.25-3.74,452.78,0,183.32,6.55,306.21,19.13,436.11-52.78,71.41-39.53,108.19-84.24,122.23-102.78,71.47-94.36,74.37-197.72,75-241.66C1217.15,1243.16,1217.1,1127.75,1136,1018ZM511,304.11a381.62,381.62,0,0,1,147.22-5.55c49.51,7.91,113.68,18.16,161.11,72.22,48.5,55.27,49.63,122.28,50,144.44.33,19.68,2,117.72-66.66,172.22-36,28.63-75.11,32.23-147.23,38.89a621.56,621.56,0,0,1-138.88-2.77Q513.77,513.83,511,304.11ZM858.22,1376.33c-66,70.61-162.21,62.41-175,61.11H538.78Q536,1218,533.22,998.56a545,545,0,0,1,141.67-8.34c59.75,4.32,99.54,7.2,138.89,33.34,70.34,46.71,84.79,131.52,88.89,155.55C908.17,1211.41,924.23,1305.67,858.22,1376.33Z" transform="translate(-69.33 -40.22)"/></svg>